<?xml version="1.0" encoding="UTF-8" standalone="no" ?>
<!DOCTYPE svg PUBLIC "-//W3C//DTD SVG 1.1//EN" "http://www.w3.org/Graphics/SVG/1.1/DTD/svg11.dtd">
<svg xmlns="http://www.w3.org/2000/svg" xmlns:xlink="http://www.w3.org/1999/xlink" version="1.1" width="50" height="50" viewBox="0 0 1080 1080" xml:space="preserve">
<desc>Created with Fabric.js 5.2.4</desc>
<defs>
</defs>
<g transform="matrix(1 0 0 1 540 540)" id="b6cc73fc-b95a-4deb-ad8e-2db2d19a0995"  >
<rect style="stroke: none; stroke-width: 1; stroke-dasharray: none; stroke-linecap: butt; stroke-dashoffset: 0; stroke-linejoin: miter; stroke-miterlimit: 4; fill: rgb(255,255,255); fill-rule: nonzero; opacity: 1; visibility: hidden;" vector-effect="non-scaling-stroke"  x="-540" y="-540" rx="0" ry="0" width="50" height="50" />
</g>
<g transform="matrix(1 0 0 1 540 540)" id="0d4174a2-3da9-420f-b80f-be78b877756f"  >
</g>
<g transform="matrix(1 0 0 1 540 540)" id="20c83cbf-c803-40fc-9e01-d86c53090e5f"  >
<path style="stroke: rgb(0,0,0); stroke-width: 0; stroke-dasharray: none; stroke-linecap: butt; stroke-dashoffset: 0; stroke-linejoin: miter; stroke-miterlimit: 4; fill: #001524; fill-rule: nonzero; opacity: 1;" vector-effect="non-scaling-stroke"  transform=" translate(-230, -170)" d="M 30 170 L 30 30 L 230 30 L 430 30 L 430 170 L 430 310 L 230 310 L 30 310 L 30 170 z M 160 170 L 160 50 L 105 50 L 50 50 L 50 170 L 50 290 L 105 290 L 160 290 L 160 170 z M 280 170 L 280 50 L 230 50 L 180 50 L 180 170 L 180 290 L 230 290 L 280 290 L 280 170 z M 410 170 L 410 50 L 355 50 L 300 50 L 300 170 L 300 290 L 355 290 L 410 290 L 410 170 z" stroke-linecap="round" />
</g>
<g transform="matrix(NaN NaN NaN NaN 0 0)"  >
<g style=""   >
</g>
</g>
<g transform="matrix(NaN NaN NaN NaN 0 0)"  >
<g style=""   >
</g>
</g>
</svg>