<?xml version="1.0" standalone="no"?>
<!DOCTYPE svg PUBLIC "-//W3C//DTD SVG 20010904//EN"
 "http://www.w3.org/TR/2001/REC-SVG-20010904/DTD/svg10.dtd">
<svg version="1.0" xmlns="http://www.w3.org/2000/svg"
 width="840.000000pt" height="475.000000pt" viewBox="0 0 840.000000 475.000000"
 preserveAspectRatio="xMidYMid meet">

<g transform="translate(0.000000,475.000000) scale(0.100000,-0.100000)"
fill="#000000" stroke="none">
<path d="M2984 4296 c-4 -9 -4 -41 0 -70 5 -50 4 -54 -19 -64 -14 -7 -44 -15
-65 -18 -25 -4 -40 -12 -40 -21 0 -11 10 -13 48 -8 26 4 54 9 63 11 23 6 36
-14 44 -66 10 -70 15 -80 37 -80 18 0 20 4 14 38 -3 20 -9 55 -12 78 l-6 41
61 13 c34 7 64 17 67 22 13 21 -14 28 -70 17 -33 -6 -62 -7 -67 -2 -5 5 -13
30 -18 57 -10 55 -27 79 -37 52z"/>
<path d="M4720 3982 c0 -27 -3 -102 -6 -168 -3 -67 -1 -125 4 -132 7 -11 42 3
162 63 84 42 149 80 144 85 -8 6 -254 170 -291 193 -10 6 -13 -4 -13 -41z
m144 -80 c54 -37 97 -72 95 -77 -2 -5 -52 -33 -111 -62 l-108 -52 0 32 c0 69
13 227 19 227 3 0 51 -31 105 -68z"/>
<path d="M5258 3945 c-35 -20 -48 -44 -48 -90 0 -47 13 -71 50 -90 45 -23 85
-19 122 14 28 25 33 36 33 75 0 36 -6 51 -26 72 -32 32 -93 41 -131 19z m102
-45 c41 -41 10 -110 -47 -110 -34 0 -46 8 -62 38 -34 65 56 125 109 72z"/>
<path d="M3641 3784 c-75 -53 -49 -177 40 -184 49 -4 67 1 93 26 61 62 15 174
-71 174 -21 0 -49 -7 -62 -16z m106 -38 c42 -40 8 -120 -50 -114 -43 4 -74 48
-61 85 16 47 76 63 111 29z"/>
<path d="M4050 3395 c-211 -42 -407 -192 -504 -385 -39 -79 -60 -148 -83 -280
l-8 -45 -115 -5 c-135 -6 -163 -18 -179 -77 -6 -21 -20 -152 -32 -292 l-22
-254 23 -19 c16 -13 36 -18 62 -16 52 4 52 21 1 32 -52 12 -50 -9 -23 286 11
118 20 225 20 238 0 12 9 31 20 42 18 18 33 20 135 20 102 0 117 2 135 20 11
11 20 33 20 50 0 70 33 189 77 279 121 246 380 395 657 378 339 -21 602 -269
646 -612 7 -57 14 -74 35 -92 24 -21 36 -23 139 -23 79 0 117 -4 124 -12 5 -7
13 -49 16 -93 4 -44 11 -120 16 -170 6 -49 26 -270 45 -490 20 -220 49 -547
65 -727 17 -180 30 -345 30 -367 l0 -41 -1155 0 c-915 0 -1157 3 -1160 13 -3
6 5 122 18 257 l22 245 37 0 c36 0 68 18 51 28 -4 3 -29 8 -54 12 -35 5 -48 3
-58 -9 -8 -9 -20 -95 -32 -223 -10 -114 -21 -234 -24 -265 -5 -49 -3 -60 15
-78 20 -20 25 -20 1178 -20 1061 0 1160 1 1181 17 23 15 24 20 18 102 -10 131
-45 526 -72 811 -13 140 -38 417 -55 615 -17 198 -36 372 -41 386 -15 39 -49
49 -169 49 -126 0 -123 -2 -134 94 -16 147 -95 304 -207 416 -179 178 -419
253 -659 205z"/>
<path d="M1870 3215 l0 -75 -75 0 c-67 0 -75 -2 -75 -19 0 -25 19 -31 91 -31
l59 0 0 -76 c0 -72 1 -75 23 -72 20 3 22 9 25 74 l3 72 75 7 c62 6 75 10 72
23 -3 14 -18 18 -76 20 l-72 3 -1 42 c-1 23 -3 49 -4 57 -1 8 -3 23 -4 33 0
10 -9 17 -21 17 -18 0 -20 -7 -20 -75z"/>
<path d="M4085 3136 c-189 -37 -353 -157 -433 -318 -46 -92 -48 -110 -19 -144
l25 -29 524 -2 c407 -2 528 0 548 10 59 30 49 102 -33 224 -55 82 -104 128
-197 183 -128 76 -275 103 -415 76z m222 -42 c179 -37 311 -137 397 -299 29
-55 33 -87 12 -104 -9 -8 -157 -10 -531 -9 -471 3 -519 5 -528 20 -8 13 -2 34
28 95 71 146 222 262 387 298 85 18 144 18 235 -1z"/>
<path d="M2508 3003 c-43 -2 -78 -6 -78 -9 0 -2 17 -32 38 -67 140 -228 146
-237 158 -224 11 12 144 291 144 302 0 5 -114 4 -262 -2z m222 -27 c0 -17
-114 -236 -119 -230 -28 33 -131 215 -126 224 6 9 245 16 245 6z"/>
<path d="M6257 2903 c-2 -5 -12 -34 -22 -66 -10 -33 -25 -61 -32 -64 -8 -3
-39 4 -71 15 -34 13 -60 18 -66 12 -18 -18 5 -39 63 -56 68 -20 70 -26 46 -94
-20 -57 -19 -80 3 -80 14 0 23 15 37 60 10 34 23 64 28 67 5 3 36 -3 68 -12
43 -13 63 -15 70 -8 18 18 2 31 -57 50 -31 9 -58 23 -61 30 -3 7 4 41 16 75
16 48 18 64 8 70 -15 10 -25 10 -30 1z"/>
<path d="M1479 2467 c-60 -32 -94 -97 -85 -162 16 -106 127 -164 230 -121 94
39 120 172 48 250 -55 59 -122 70 -193 33z m142 -40 c23 -15 38 -37 47 -65 12
-37 12 -46 -5 -79 -25 -51 -65 -78 -113 -77 -105 3 -158 135 -82 206 48 45
101 50 153 15z"/>
<path d="M2980 2026 c-36 -13 -54 -46 -25 -46 26 0 75 29 75 45 0 18 -4 18
-50 1z"/>
<path d="M3333 2004 c-19 -8 -4 -31 34 -54 27 -16 39 -18 47 -10 8 9 2 19 -24
41 -35 30 -37 31 -57 23z"/>
<path d="M2817 1893 c-26 -37 -27 -53 -2 -53 17 0 59 66 50 80 -11 17 -21 11
-48 -27z"/>
<path d="M3466 1855 c-9 -24 25 -85 47 -85 14 0 17 5 12 23 -20 64 -47 93 -59
62z"/>
<path d="M3099 1815 c-15 -8 -34 -32 -43 -55 -18 -46 -22 -164 -5 -207 26 -68
90 -98 148 -69 49 26 65 68 65 166 0 97 -16 140 -64 165 -36 19 -67 19 -101 0z
m111 -47 c25 -41 28 -170 6 -223 -23 -55 -83 -61 -119 -12 -18 23 -21 42 -21
115 -1 118 18 152 82 152 26 0 36 -6 52 -32z"/>
<path d="M2750 1730 c-15 -28 -9 -75 10 -75 9 0 17 13 20 35 10 58 -8 81 -30
40z"/>
<path d="M3516 1658 c-14 -44 -14 -77 -1 -88 12 -10 17 -7 25 16 6 15 10 39 8
53 -3 27 -26 41 -32 19z"/>
<path d="M3836 1629 c-15 -12 -26 -30 -26 -45 0 -31 33 -64 65 -64 30 0 65 32
65 60 0 24 -42 70 -63 70 -8 0 -26 -9 -41 -21z"/>
<path d="M4576 1629 c-54 -42 -11 -122 55 -106 55 14 57 97 4 117 -33 13 -28
14 -59 -11z"/>
<path d="M2764 1546 c-7 -19 25 -86 42 -86 22 0 23 14 4 58 -19 43 -36 53 -46
28z"/>
<path d="M840 1509 c-31 -13 -40 -26 -40 -65 0 -40 29 -66 76 -67 43 -1 74 29
74 73 0 48 -59 80 -110 59z"/>
<path d="M1218 1499 c-26 -15 -24 -80 3 -105 20 -18 45 -19 473 -22 539 -4
790 3 811 25 8 8 15 30 15 48 0 69 36 65 -658 65 -407 -1 -633 -4 -644 -11z"/>
<path d="M5905 1475 c-14 -13 -25 -33 -25 -45 0 -11 11 -32 25 -45 l24 -25
621 0 c607 0 620 0 640 20 11 11 20 33 20 50 0 17 -9 39 -20 50 -20 20 -33 20
-640 20 l-621 0 -24 -25z"/>
<path d="M7482 1484 c-16 -11 -22 -25 -22 -54 0 -46 26 -70 77 -70 41 0 73 30
73 70 0 59 -76 91 -128 54z"/>
<path d="M400 1483 c-47 -6 -62 -21 -58 -57 4 -41 36 -56 121 -56 72 0 107 19
107 58 0 48 -66 69 -170 55z"/>
<path d="M3442 1450 c-25 -34 -29 -60 -8 -60 19 0 70 66 61 80 -11 18 -31 11
-53 -20z"/>
<path d="M7870 1457 c-19 -10 -25 -20 -25 -47 0 -48 28 -59 128 -53 70 5 79 8
87 28 13 33 1 65 -27 76 -35 13 -134 11 -163 -4z"/>
<path d="M2885 1379 c-8 -11 19 -45 48 -61 32 -17 44 8 16 32 -39 33 -57 41
-64 29z"/>
<path d="M3292 1325 c-23 -10 -32 -20 -30 -32 4 -22 33 -19 67 6 53 37 28 54
-37 26z"/>
<path d="M4120 1300 c-82 -28 -106 -70 -68 -117 14 -18 58 -16 104 3 64 27
177 15 247 -24 64 -36 88 -39 112 -16 28 29 15 74 -30 106 -94 65 -255 86
-365 48z"/>
<path d="M1186 1120 c-92 -28 -136 -153 -84 -238 23 -38 85 -71 133 -72 54 0
117 40 143 90 28 56 28 86 -1 140 -37 71 -114 103 -191 80z m113 -45 c52 -27
75 -108 47 -164 -51 -98 -196 -81 -225 26 -29 104 80 189 178 138z"/>
<path d="M1928 1052 c-40 -3 -53 -14 -63 -54 -5 -19 -1 -32 14 -47 17 -17 33
-21 94 -21 46 0 80 5 92 14 22 16 25 71 4 90 -15 15 -81 23 -141 18z"/>
<path d="M2487 1050 c-224 -5 -227 -6 -227 -61 0 -58 8 -59 336 -59 337 0 344
1 344 65 0 23 -6 37 -17 43 -27 14 -202 19 -436 12z"/>
<path d="M5515 1033 c-29 -7 -55 -33 -55 -55 0 -10 11 -30 25 -44 l25 -25 306
3 c289 3 306 4 320 22 21 30 17 62 -12 85 -26 20 -38 21 -308 20 -154 -1 -290
-4 -301 -6z"/>
<path d="M6367 1033 c-54 -8 -62 -88 -12 -111 34 -16 123 -15 155 1 20 10 25
20 25 52 0 32 -5 42 -25 52 -24 12 -84 15 -143 6z"/>
<path d="M1008 523 c-30 -3 -39 -9 -44 -29 -9 -34 1 -53 33 -65 32 -12 97 -6
118 11 8 7 15 26 15 41 0 22 -6 32 -26 39 -14 6 -33 9 -42 8 -9 -1 -34 -3 -54
-5z"/>
<path d="M1440 512 c-30 -24 -21 -68 16 -82 14 -6 149 -10 302 -10 235 0 281
2 300 16 27 19 28 48 2 74 -19 19 -33 20 -309 20 -265 0 -291 -2 -311 -18z"/>
<path d="M6346 494 c-41 -40 -7 -83 67 -85 221 -6 540 1 553 12 17 14 18 61 2
77 -9 9 -91 12 -309 12 -257 0 -300 -2 -313 -16z"/>
<path d="M7294 502 c-42 -28 -15 -86 45 -96 83 -13 142 41 95 88 -16 17 -119
23 -140 8z"/>
</g>
</svg>
